<svg xmlns="http://www.w3.org/2000/svg" xmlns:xlink="http://www.w3.org/1999/xlink" width="500" zoomAndPan="magnify" viewBox="0 0 375 374.999991" height="500" preserveAspectRatio="xMidYMid meet" version="1.0"><path fill="#ff774d" d="M 187.382812 144.332031 L 187.929688 144.335938 C 191.039062 144.375 193.917969 145.257812 196.605469 146.808594 C 199.113281 148.308594 201.257812 150.484375 202.679688 153.035156 C 203.390625 154.316406 203.941406 155.625 204.332031 157.039062 L 204.417969 157.351562 C 204.988281 159.628906 205.003906 162.023438 204.996094 164.355469 L 204.996094 165.210938 C 204.996094 165.980469 204.996094 166.753906 204.992188 167.523438 C 204.992188 168.347656 204.992188 169.175781 204.992188 170 C 204.992188 171.398438 204.992188 172.796875 204.988281 174.195312 C 204.988281 175.597656 204.984375 176.996094 204.984375 178.398438 C 204.984375 185.898438 204.964844 193.402344 204.894531 200.90625 L 204.878906 202.425781 C 204.875 203.214844 204.867188 204 204.855469 204.785156 C 204.855469 205.074219 204.851562 205.363281 204.847656 205.652344 C 204.84375 206.042969 204.839844 206.433594 204.835938 206.828125 L 204.835938 207.175781 C 204.824219 207.960938 204.824219 207.960938 204.652344 208.296875 C 202.832031 208.417969 201.015625 208.488281 199.1875 208.449219 L 198.871094 208.445312 C 198.578125 208.4375 198.285156 208.425781 197.992188 208.410156 L 197.492188 208.390625 C 197.0625 208.296875 197.0625 208.296875 196.730469 208.054688 C 196.328125 207.519531 196.050781 206.976562 195.953125 206.3125 C 195.933594 205.957031 195.925781 205.605469 195.921875 205.25 L 195.914062 204.839844 C 195.90625 204.390625 195.902344 203.9375 195.898438 203.488281 C 195.890625 203.160156 195.886719 202.835938 195.882812 202.511719 C 195.828125 198.828125 195.824219 195.148438 195.824219 191.464844 C 195.820312 189.984375 195.820312 188.503906 195.816406 187.023438 L 195.8125 186.035156 C 195.808594 184.699219 195.808594 183.367188 195.804688 182.03125 C 195.800781 180.214844 195.800781 178.398438 195.796875 176.585938 C 195.796875 174.703125 195.792969 172.824219 195.789062 170.945312 C 195.785156 169.792969 195.785156 168.640625 195.785156 167.488281 C 195.785156 166.609375 195.78125 165.730469 195.777344 164.851562 C 195.777344 164.492188 195.777344 164.132812 195.777344 163.777344 C 195.785156 161.589844 195.75 159.660156 194.671875 157.691406 C 193.953125 156.597656 193.125 155.609375 192.007812 154.910156 C 190.476562 154.144531 188.824219 153.730469 187.117188 153.75 C 185.636719 153.867188 184.160156 154.269531 182.882812 155.035156 C 181.683594 155.878906 180.570312 156.871094 179.90625 158.195312 C 179.421875 159.402344 179.128906 160.550781 179.128906 161.855469 L 179.128906 163.660156 C 179.128906 164.25 179.128906 164.839844 179.128906 165.433594 C 179.128906 166.070312 179.128906 166.707031 179.128906 167.347656 C 179.125 168.59375 179.125 169.84375 179.128906 171.09375 C 179.128906 172.546875 179.128906 174 179.128906 175.453125 C 179.125 178.203125 179.128906 180.949219 179.128906 183.699219 C 179.128906 186.0625 179.128906 188.421875 179.128906 190.78125 C 179.125 193.960938 179.125 197.140625 179.128906 200.3125 C 179.128906 201.328125 179.128906 202.34375 179.128906 203.355469 C 179.125 204.589844 179.125 205.824219 179.128906 207.058594 C 179.128906 207.691406 179.128906 208.320312 179.128906 208.949219 C 179.128906 209.527344 179.128906 210.101562 179.128906 210.679688 C 179.128906 210.890625 179.128906 211.097656 179.128906 211.308594 C 179.128906 211.589844 179.128906 211.875 179.128906 212.15625 L 179.128906 212.632812 C 179.121094 213.003906 179.121094 213.003906 179.300781 213.308594 L 222.113281 213.460938 L 222.113281 192.203125 C 222.617188 188.847656 223.347656 185.902344 225.425781 183.203125 L 225.757812 182.792969 L 225.945312 182.550781 C 226.886719 181.359375 227.871094 180.359375 229.097656 179.453125 L 229.539062 179.113281 C 231.808594 177.445312 234.363281 176.375 237.144531 175.960938 C 240.929688 175.722656 244.453125 176.261719 247.859375 177.953125 C 250.539062 179.339844 252.789062 181.328125 254.425781 183.871094 C 256.074219 186.539062 256.863281 189.464844 256.960938 192.589844 L 256.976562 193.191406 L 256.984375 193.507812 C 257.132812 199.078125 257.128906 204.671875 256.71875 210.230469 C 256.699219 210.460938 256.683594 210.691406 256.667969 210.925781 C 256.515625 213.1875 256.015625 215.332031 254.753906 217.253906 C 253.582031 218.96875 252.066406 220.203125 250.214844 221.105469 C 247.09375 222.546875 243.800781 222.441406 240.441406 222.433594 L 239.285156 222.433594 C 238.457031 222.433594 237.628906 222.433594 236.800781 222.433594 C 235.605469 222.433594 234.40625 222.429688 233.210938 222.429688 C 231.269531 222.429688 229.328125 222.429688 227.382812 222.429688 C 225.5 222.425781 223.613281 222.425781 221.726562 222.425781 L 219.621094 222.425781 C 214.785156 222.421875 209.945312 222.421875 205.109375 222.417969 C 204.992188 226.519531 204.933594 230.625 204.933594 234.726562 L 204.929688 236.046875 C 204.929688 237.589844 204.929688 239.136719 204.929688 240.679688 C 204.929688 242.109375 204.929688 243.535156 204.925781 244.964844 C 204.921875 246.203125 204.921875 247.445312 204.921875 248.683594 C 204.921875 249.421875 204.921875 250.15625 204.921875 250.890625 C 204.917969 251.578125 204.917969 252.265625 204.921875 252.953125 C 204.921875 253.203125 204.921875 253.453125 204.917969 253.703125 C 204.910156 255.941406 205.046875 258.144531 206.078125 260.179688 C 206.886719 261.578125 207.804688 262.589844 209.207031 263.410156 C 211.234375 264.402344 212.984375 264.777344 215.21875 264.660156 C 216.328125 264.550781 217.304688 264.074219 218.214844 263.449219 C 218.40625 263.289062 218.589844 263.125 218.773438 262.953125 L 219.074219 262.675781 C 220.339844 261.390625 221.113281 259.683594 221.574219 257.953125 C 221.746094 257.140625 221.859375 256.355469 221.898438 255.523438 L 221.917969 255.1875 C 221.976562 253.976562 221.984375 252.765625 221.984375 251.554688 L 221.988281 250.816406 C 221.988281 250.289062 221.992188 249.761719 221.992188 249.234375 C 221.992188 248.402344 221.996094 247.570312 222 246.738281 C 222.007812 244.371094 222.019531 242.007812 222.023438 239.640625 C 222.027344 238.328125 222.03125 237.019531 222.035156 235.707031 C 222.039062 235.015625 222.042969 234.324219 222.042969 233.628906 C 222.042969 232.980469 222.042969 232.332031 222.046875 231.683594 C 222.050781 231.445312 222.050781 231.207031 222.050781 230.96875 C 222.050781 230.644531 222.050781 230.320312 222.054688 229.996094 L 222.054688 229.445312 C 222.121094 228.882812 222.277344 228.515625 222.570312 228.035156 C 223.011719 227.707031 223.398438 227.535156 223.933594 227.425781 C 224.570312 227.394531 225.207031 227.398438 225.84375 227.398438 L 226.363281 227.394531 C 228.921875 227.390625 228.921875 227.390625 230.007812 227.976562 C 230.410156 228.453125 230.601562 228.960938 230.765625 229.554688 C 230.808594 229.980469 230.828125 230.375 230.824219 230.804688 L 230.828125 231.164062 C 230.828125 231.5625 230.828125 231.960938 230.828125 232.359375 C 230.828125 232.648438 230.828125 232.933594 230.828125 233.222656 C 230.832031 234 230.828125 234.777344 230.828125 235.554688 C 230.828125 236.371094 230.828125 237.183594 230.828125 238 C 230.828125 239.371094 230.828125 240.742188 230.828125 242.113281 C 230.824219 243.691406 230.824219 245.273438 230.828125 246.851562 C 230.828125 248.210938 230.832031 249.570312 230.828125 250.933594 C 230.828125 251.742188 230.828125 252.554688 230.828125 253.363281 C 230.832031 254.128906 230.828125 254.890625 230.828125 255.65625 C 230.828125 255.933594 230.828125 256.210938 230.828125 256.492188 C 230.839844 259.730469 230.089844 262.539062 228.488281 265.382812 C 226.78125 268.175781 224.4375 270.429688 221.574219 272.023438 C 220.15625 272.773438 218.542969 273.34375 216.953125 273.582031 L 216.628906 273.632812 C 213.25 274.058594 209.710938 273.59375 206.5625 272.292969 C 204.882812 271.558594 203.324219 270.667969 201.921875 269.480469 L 201.546875 269.171875 C 199.457031 267.363281 197.917969 265.105469 197.007812 262.492188 C 195.898438 259.082031 195.824219 255.609375 195.832031 252.058594 L 195.832031 251.074219 C 195.832031 250.199219 195.832031 249.328125 195.832031 248.457031 C 195.832031 247.632812 195.832031 246.8125 195.832031 245.992188 C 195.835938 243.597656 195.835938 241.199219 195.839844 238.804688 L 195.847656 222.570312 L 153.035156 222.570312 L 152.988281 239.792969 L 152.964844 245.21875 C 152.964844 246.832031 152.964844 246.832031 152.960938 248.445312 C 152.960938 249.160156 152.957031 249.875 152.953125 250.589844 C 152.949219 251.507812 152.949219 252.421875 152.949219 253.335938 C 152.949219 253.671875 152.945312 254.007812 152.945312 254.339844 C 152.925781 256.496094 153.050781 258.472656 154.054688 260.425781 C 154.851562 261.78125 155.925781 262.808594 157.265625 263.621094 C 158.625 264.320312 160.148438 264.8125 161.6875 264.777344 C 163.253906 264.671875 164.667969 264.324219 166.003906 263.480469 C 167.125 262.65625 168.277344 261.570312 168.847656 260.28125 C 169.613281 258.089844 169.757812 255.996094 169.746094 253.699219 L 169.746094 252.917969 C 169.746094 252.359375 169.742188 251.804688 169.742188 251.246094 C 169.738281 250.363281 169.738281 249.480469 169.734375 248.597656 C 169.730469 246.089844 169.726562 243.582031 169.71875 241.074219 C 169.714844 239.6875 169.714844 238.296875 169.710938 236.910156 C 169.710938 236.035156 169.707031 235.15625 169.707031 234.28125 C 169.703125 233.734375 169.703125 233.191406 169.703125 232.644531 C 169.703125 232.390625 169.703125 232.140625 169.699219 231.886719 C 169.699219 231.542969 169.699219 231.195312 169.699219 230.851562 L 169.699219 230.265625 C 169.738281 229.628906 169.851562 229.101562 170.039062 228.488281 C 170.371094 228.054688 170.371094 228.054688 170.796875 227.730469 C 171.617188 227.4375 172.34375 227.378906 173.199219 227.390625 L 173.574219 227.390625 C 174.464844 227.40625 175.347656 227.457031 176.234375 227.542969 L 176.570312 227.570312 C 177.125 227.632812 177.503906 227.746094 177.992188 228.019531 C 178.386719 228.339844 178.386719 228.339844 178.664062 228.765625 C 178.988281 229.640625 179.015625 230.519531 179.015625 231.445312 L 179.019531 231.773438 C 179.019531 232.136719 179.019531 232.5 179.019531 232.863281 L 179.023438 233.648438 C 179.023438 234.355469 179.027344 235.0625 179.027344 235.773438 L 179.027344 237.105469 C 179.03125 238.496094 179.03125 239.890625 179.03125 241.28125 C 179.03125 242.882812 179.035156 244.484375 179.039062 246.085938 C 179.042969 247.324219 179.046875 248.566406 179.046875 249.808594 C 179.046875 250.546875 179.046875 251.289062 179.046875 252.027344 C 179.066406 256.796875 178.949219 261.152344 176.570312 265.421875 C 175.125 267.894531 172.964844 270.007812 170.488281 271.441406 C 167.394531 273.160156 164.089844 273.804688 160.578125 273.765625 C 157.253906 273.675781 154.199219 272.488281 151.382812 270.78125 C 150.539062 270.226562 149.8125 269.574219 149.085938 268.875 L 148.707031 268.53125 C 146.8125 266.746094 145.613281 264.53125 144.796875 262.082031 C 144.183594 259.949219 144.0625 257.820312 143.996094 255.617188 L 143.984375 255.292969 C 143.902344 252.519531 143.898438 249.75 143.894531 246.976562 C 143.894531 246.035156 143.890625 245.097656 143.886719 244.160156 C 143.878906 241.492188 143.867188 238.828125 143.863281 236.164062 C 143.859375 234.679688 143.855469 233.199219 143.851562 231.71875 C 143.847656 230.9375 143.84375 230.15625 143.84375 229.375 C 143.84375 228.644531 143.84375 227.917969 143.835938 227.1875 C 143.835938 226.917969 143.835938 226.652344 143.835938 226.386719 C 143.835938 226.019531 143.835938 225.65625 143.832031 225.289062 L 143.835938 224.972656 C 143.824219 224.175781 143.640625 223.589844 143.316406 222.871094 C 142.917969 222.546875 142.917969 222.546875 142.40625 222.417969 C 142.011719 222.378906 141.617188 222.363281 141.222656 222.371094 L 140.871094 222.371094 C 140.625 222.371094 140.375 222.375 140.125 222.378906 C 139.730469 222.382812 139.332031 222.386719 138.9375 222.386719 C 138.238281 222.390625 137.539062 222.398438 136.835938 222.402344 C 135.722656 222.414062 134.605469 222.421875 133.488281 222.429688 C 133.101562 222.429688 132.714844 222.433594 132.328125 222.441406 C 129.527344 222.464844 126.921875 222.074219 124.410156 220.753906 C 122.324219 219.558594 120.722656 217.867188 119.484375 215.824219 C 118.410156 213.96875 117.917969 211.835938 117.902344 209.703125 L 117.902344 208.617188 C 117.898438 208.109375 117.902344 207.605469 117.902344 207.097656 C 117.902344 206.5625 117.902344 206.027344 117.902344 205.492188 C 117.902344 204.59375 117.902344 203.695312 117.902344 202.796875 C 117.90625 201.765625 117.90625 200.734375 117.902344 199.699219 C 117.902344 198.808594 117.902344 197.914062 117.902344 197.023438 C 117.902344 196.492188 117.902344 195.960938 117.902344 195.433594 C 117.890625 191.726562 118.191406 188.300781 119.945312 184.972656 C 120.875 183.359375 121.976562 181.984375 123.277344 180.664062 L 123.601562 180.335938 C 125.789062 178.253906 128.683594 177.023438 131.570312 176.269531 C 134.613281 175.59375 137.875 175.609375 140.863281 176.53125 C 143.753906 177.5 146.359375 179.277344 148.410156 181.53125 C 150.585938 184.011719 151.867188 186.765625 152.648438 189.957031 C 152.863281 191.066406 152.902344 192.140625 152.898438 193.269531 L 152.898438 193.761719 C 152.898438 194.296875 152.898438 194.832031 152.898438 195.367188 L 152.894531 196.488281 C 152.894531 197.464844 152.894531 198.445312 152.894531 199.421875 C 152.890625 200.597656 152.890625 201.773438 152.890625 202.949219 C 152.886719 204.730469 152.886719 206.515625 152.882812 208.296875 L 143.925781 208.296875 L 143.898438 205.644531 L 143.878906 203.960938 C 143.867188 203.070312 143.859375 202.183594 143.847656 201.296875 C 143.84375 200.582031 143.835938 199.863281 143.824219 199.148438 C 143.824219 198.875 143.820312 198.605469 143.816406 198.335938 C 143.804688 196.925781 143.773438 195.523438 143.699219 194.113281 L 143.683594 193.753906 C 143.636719 192.949219 143.5625 192.171875 143.375 191.386719 L 143.296875 191.050781 C 142.921875 189.585938 142.261719 188.378906 141.21875 187.28125 C 140.148438 186.28125 138.976562 185.570312 137.546875 185.21875 C 135.910156 184.898438 134.332031 184.964844 132.742188 185.476562 C 131.1875 186.089844 129.839844 187.015625 128.757812 188.292969 C 127.910156 189.421875 127.367188 190.71875 126.921875 192.050781 C 126.519531 196.300781 126.742188 200.664062 126.765625 204.921875 C 126.769531 205.367188 126.769531 205.816406 126.769531 206.261719 C 126.769531 206.839844 126.773438 207.421875 126.785156 208 C 126.789062 208.285156 126.785156 208.570312 126.785156 208.859375 C 126.808594 209.730469 126.90625 210.355469 127.347656 211.117188 C 127.867188 211.90625 128.503906 212.539062 129.324219 213.011719 C 130.394531 213.515625 131.558594 213.480469 132.714844 213.480469 L 133.179688 213.480469 C 133.691406 213.480469 134.207031 213.480469 134.71875 213.480469 L 135.820312 213.480469 C 136.714844 213.480469 137.609375 213.480469 138.503906 213.480469 C 139.234375 213.480469 139.960938 213.480469 140.6875 213.480469 L 141.632812 213.480469 C 143.605469 213.480469 145.578125 213.480469 147.550781 213.480469 C 149.246094 213.480469 150.9375 213.480469 152.628906 213.480469 C 154.804688 213.480469 156.980469 213.480469 159.15625 213.480469 L 159.46875 213.480469 C 160.195312 213.480469 160.921875 213.480469 161.648438 213.480469 C 162.625 213.480469 163.601562 213.480469 164.582031 213.480469 C 164.941406 213.480469 165.300781 213.480469 165.65625 213.480469 C 166.148438 213.480469 166.636719 213.480469 167.128906 213.480469 L 167.558594 213.480469 C 168.300781 213.476562 169.003906 213.433594 169.734375 213.308594 L 169.734375 212.988281 C 169.730469 205.964844 169.730469 198.941406 169.726562 191.914062 L 169.726562 191.460938 C 169.726562 189.035156 169.722656 186.605469 169.722656 184.179688 C 169.722656 181.6875 169.722656 179.199219 169.71875 176.707031 C 169.71875 175.171875 169.71875 173.632812 169.71875 172.097656 C 169.71875 171.042969 169.71875 169.988281 169.71875 168.933594 C 169.71875 168.324219 169.71875 167.71875 169.714844 167.109375 C 169.707031 160.832031 169.707031 160.832031 170.144531 158.804688 L 170.222656 158.421875 C 170.953125 155.097656 172.433594 152.332031 174.722656 149.820312 C 176.820312 147.59375 179.335938 146.070312 182.222656 145.082031 L 182.542969 144.972656 C 184.128906 144.460938 185.722656 144.324219 187.382812 144.332031 M 234.757812 186.476562 L 234.410156 186.738281 L 234.117188 186.949219 C 232.957031 187.851562 232.097656 189.175781 231.542969 190.523438 C 230.96875 192.113281 230.84375 193.734375 230.816406 195.410156 C 230.808594 195.636719 230.804688 195.859375 230.800781 196.082031 C 230.785156 196.816406 230.773438 197.546875 230.765625 198.277344 L 230.761719 198.65625 C 230.742188 200.757812 230.75 202.855469 230.765625 204.957031 L 230.769531 205.492188 C 230.78125 206.628906 230.792969 207.761719 230.808594 208.898438 C 230.8125 209.269531 230.816406 209.640625 230.820312 210.011719 C 230.824219 210.53125 230.832031 211.050781 230.839844 211.566406 L 230.84375 212.042969 L 230.855469 212.476562 L 230.859375 212.851562 L 230.917969 213.15625 C 231.324219 213.472656 231.324219 213.472656 231.660156 213.507812 L 231.992188 213.519531 L 232.371094 213.539062 L 232.792969 213.554688 L 233.234375 213.570312 C 235.035156 213.632812 236.835938 213.640625 238.636719 213.640625 C 239.226562 213.640625 239.816406 213.644531 240.40625 213.644531 C 240.789062 213.644531 241.167969 213.644531 241.546875 213.644531 L 242.074219 213.648438 C 243.585938 213.644531 245.027344 213.515625 246.371094 212.78125 C 246.945312 212.386719 247.289062 211.945312 247.621094 211.335938 C 248.015625 210.246094 248.140625 209.210938 248.132812 208.0625 L 248.132812 207.605469 C 248.132812 207.113281 248.132812 206.621094 248.128906 206.128906 C 248.128906 205.78125 248.128906 205.433594 248.128906 205.089844 C 248.128906 204.363281 248.128906 203.640625 248.125 202.917969 C 248.121094 201.996094 248.121094 201.074219 248.125 200.152344 C 248.125 199.4375 248.125 198.722656 248.121094 198.007812 C 248.121094 197.667969 248.121094 197.328125 248.121094 196.988281 C 248.121094 194.195312 248.089844 191.5625 246.78125 189.019531 C 245.984375 187.683594 244.957031 186.539062 243.597656 185.761719 C 243.320312 185.625 243.042969 185.496094 242.761719 185.371094 L 242.410156 185.214844 C 239.917969 184.300781 236.875 184.984375 234.757812 186.476562 M 143.320312 134.808594 C 144.984375 135.691406 146.378906 136.847656 147.71875 138.15625 L 148.027344 138.4375 C 150.019531 140.316406 151.429688 142.996094 152.21875 145.605469 C 153.027344 148.46875 153.234375 151.644531 152.503906 154.554688 C 151.535156 158.070312 149.824219 160.9375 147.253906 163.523438 C 144.96875 165.660156 142.0625 166.945312 139.066406 167.726562 C 138.660156 167.8125 138.261719 167.867188 137.851562 167.914062 L 137.289062 167.972656 C 133.988281 168.273438 130.78125 167.707031 127.753906 166.375 C 125.03125 165.113281 122.734375 163.25 120.953125 160.824219 C 119.148438 158.242188 118.171875 155.261719 117.871094 152.144531 C 117.621094 148.859375 118.230469 145.695312 119.621094 142.714844 C 120.96875 140.015625 123.101562 137.613281 125.59375 135.929688 C 128.085938 134.324219 130.992188 133.246094 133.953125 133.011719 C 137.203125 132.859375 140.398438 133.34375 143.320312 134.808594 M 130.261719 143.773438 C 128.664062 145.023438 127.6875 146.417969 126.902344 148.269531 C 126.550781 149.617188 126.570312 151.269531 126.839844 152.632812 C 127.222656 153.988281 127.996094 155.152344 128.894531 156.222656 L 129.132812 156.519531 C 130.074219 157.574219 131.519531 158.332031 132.839844 158.792969 C 134.292969 159.234375 135.925781 159.253906 137.421875 159.035156 C 138.988281 158.652344 140.300781 157.835938 141.460938 156.730469 C 142.566406 155.5625 143.238281 154.101562 143.667969 152.558594 C 143.941406 151.09375 143.9375 149.464844 143.527344 148.035156 C 142.996094 146.550781 142.265625 145.203125 141.082031 144.144531 C 139.925781 143.222656 138.554688 142.511719 137.09375 142.253906 C 134.679688 142.011719 132.292969 142.378906 130.261719 143.773438 M 244.886719 133.753906 L 245.207031 133.855469 C 248.199219 134.828125 250.714844 136.617188 252.832031 138.925781 C 254.75 141.136719 256.132812 143.863281 256.726562 146.730469 C 257.320312 149.898438 257.234375 153.273438 256.167969 156.335938 C 255.386719 158.445312 254.382812 160.273438 252.933594 161.992188 L 252.609375 162.390625 C 250.796875 164.53125 248.382812 166.066406 245.757812 167.011719 C 245.46875 167.109375 245.179688 167.207031 244.886719 167.304688 L 244.453125 167.453125 C 241.550781 168.335938 238.417969 168.210938 235.472656 167.609375 C 232.832031 166.972656 230.421875 165.699219 228.339844 163.964844 L 227.910156 163.613281 C 225.78125 161.769531 224.175781 159.304688 223.175781 156.679688 C 222.117188 153.597656 221.734375 150.347656 222.285156 147.113281 C 222.851562 144.207031 224.296875 141.460938 226.210938 139.21875 C 228.347656 136.84375 230.902344 135.042969 233.9375 134.007812 C 237.4375 132.890625 241.351562 132.621094 244.886719 133.753906 M 234.796875 143.558594 C 234.449219 143.820312 234.125 144.089844 233.804688 144.378906 L 233.480469 144.664062 C 232.308594 145.765625 231.667969 146.992188 231.1875 148.515625 C 230.808594 149.886719 230.824219 151.105469 231.15625 152.492188 C 231.621094 154.171875 232.507812 155.503906 233.703125 156.757812 C 234.828125 157.800781 236.300781 158.636719 237.785156 159.050781 C 239.253906 159.25 241.035156 159.332031 242.433594 158.796875 L 242.761719 158.652344 L 243.136719 158.5 C 244.5625 157.867188 245.703125 156.78125 246.628906 155.53125 C 247.457031 154.207031 247.90625 152.769531 247.972656 151.210938 C 248.003906 149.453125 247.925781 147.917969 247.058594 146.34375 C 246.210938 144.96875 245.316406 144.0625 243.976562 143.164062 L 243.683594 142.96875 C 242.613281 142.351562 241.175781 142.15625 239.957031 142.078125 C 238.164062 142.1875 236.316406 142.570312 234.796875 143.558594 M 194.785156 103.175781 C 197.476562 104.472656 199.835938 106.492188 201.539062 108.941406 C 203.277344 111.53125 204.375 114.390625 204.652344 117.507812 C 204.867188 120.726562 204.300781 123.882812 202.878906 126.789062 C 201.515625 129.460938 199.542969 131.753906 197.0625 133.449219 C 194.550781 135.070312 191.65625 136.261719 188.644531 136.472656 L 188.257812 136.484375 L 187.746094 136.503906 C 184.5 136.5625 181.554688 135.882812 178.6875 134.375 C 177.28125 133.59375 176.058594 132.585938 174.898438 131.476562 L 174.621094 131.226562 C 172.730469 129.472656 171.425781 127.015625 170.664062 124.578125 C 169.671875 121.238281 169.609375 117.847656 170.417969 114.453125 C 171.070312 111.929688 172.226562 109.683594 173.832031 107.640625 L 174.109375 107.285156 C 174.820312 106.417969 175.679688 105.738281 176.566406 105.058594 L 176.910156 104.785156 C 179.179688 103.070312 181.96875 102.144531 184.746094 101.671875 C 188.195312 101.253906 191.621094 101.726562 194.785156 103.175781 M 183.09375 111.433594 C 181.785156 112.238281 180.710938 113.183594 179.914062 114.503906 C 179.078125 116.082031 178.59375 117.675781 178.648438 119.476562 C 178.808594 121.210938 179.371094 122.691406 180.328125 124.140625 C 181.242188 125.367188 182.460938 126.3125 183.855469 126.949219 C 185.429688 127.582031 187.039062 127.816406 188.730469 127.585938 C 190.402344 127.25 191.851562 126.503906 193.15625 125.417969 C 194.324219 124.34375 195.152344 122.996094 195.648438 121.488281 C 195.878906 120.679688 195.929688 119.910156 195.925781 119.074219 L 195.921875 118.632812 C 195.878906 116.976562 195.4375 115.605469 194.585938 114.175781 C 193.671875 112.847656 192.570312 111.886719 191.140625 111.132812 C 188.597656 109.976562 185.546875 110.125 183.09375 111.433594 " fill-opacity="1" fill-rule="nonzero"/></svg>