<?xml version="1.0" encoding="UTF-8"?>
<!-- Created with Inkscape (http://www.inkscape.org/) -->
<svg width="500.16" height="500.16" version="1.1" viewBox="0 0 500.16 500.16" xmlns="http://www.w3.org/2000/svg">
 <path d="m0 250.08v-250.08l-29.289-3.2185 15.771-1.2874-108.79 150.95c-711.79 310.9-9160-687.93-16.093 352.43l134.21 10.299 4.1841-9.0119zm208.87 157.63c11.782-2.2939 20.53-9.8731 24.275-21.032 1.7668-5.2632 1.7636-5.202 1.7499-33.202-8e-3 -17.351-0.12555-26.303-0.35524-27.156-0.42398-1.5745-1.5866-2.6887-3.3059-3.168-0.7221-0.2013-3.4729-0.38114-6.1129-0.39965-5.407-0.0379-6.4161 0.25187-7.4236 2.1318-0.51211 0.95552-0.55718 3.0275-0.58985 27.115-0.0353 26.031-0.0367 26.085-0.75193 28.48-0.8693 2.9116-2.1446 4.9762-4.2346 6.8552-8.4521 7.5992-22.137 2.7455-24.561-8.711-0.25079-1.1854-0.35876-10.972-0.35876-32.521 0-25.57 0.074-30.887 0.43436-31.186 0.31797-0.26389 10.714-0.33869 38.8-0.27918l38.366 0.0813 0.1792 32.96c0.17484 32.159 0.19563 33.027 0.85604 35.714 1.5487 6.3017 4.0393 10.931 8.084 15.025 6.3177 6.3946 15.046 9.896 24.679 9.9 8.3924 4e-3 15.041-2.7017 21.19-8.6217 4.5522-4.3826 7.4582-9.2854 9.2703-15.641 0.69597-2.4408 0.70035-2.628 0.70081-29.976l4.6e-4 -27.52-0.70404-1.316c-1.1182-2.0901-2.2591-2.4646-7.936-2.605-5.2844-0.13071-6.3253 0.12767-7.6172 1.8908-0.60293 0.82284-0.62478 1.6404-0.68843 25.76-0.0586 22.211-0.12548 25.188-0.61712 27.47-0.65505 3.0414-2.3443 6.7902-3.934 8.7301-3.1002 3.7833-8.3063 5.3624-13.396 4.0629-4.8655-1.2422-8.9538-4.388-10.686-8.223-1.8293-4.0491-1.7896-3.1871-1.6807-36.562 0.0686-21.006 0.20738-30.841 0.43918-31.12 0.27127-0.32686 7.7572-0.40883 37.5-0.41062 35.911-2e-3 37.25-0.0235 39.8-0.63495 7.5058-1.7994 13.471-7.0625 15.57-13.738 0.41952-1.3338 0.92257-3.9371 1.1179-5.7851 0.98412-9.3106 1.1677-32.837 0.30441-39.012-1.7089-12.226-11.284-22.444-23.973-25.585-6.2962-1.5583-10.52-1.6529-15.491-0.34667-11.302 2.9695-21.053 12.577-23.845 23.493-1.0622 4.1536-1.277 8.6801-1.2798 26.97l-3e-3 17.36h-38.549c-37.784 0-38.555-0.0123-38.88-0.61896-0.37558-0.70178-0.40932-72.369-0.0413-87.701 0.2584-10.765 0.40257-11.368 3.5352-14.787 4.7371-5.1697 12.147-6.5296 18.415-3.3795 3.1579 1.5871 5.5577 4.4464 6.9355 8.2634l0.7448 2.0627 0.16 42.24c0.17404 45.945 0.0709 43.481 1.8882 45.101 0.64297 0.57305 1.2374 0.62223 7.7354 0.64 5.4379 0.0149 7.0974-0.0752 7.2958-0.39575 0.66563-1.0754 0.98587-82.954 0.34628-88.537-0.72701-6.3465-2.7938-11.669-6.3777-16.426-4.2869-5.6891-9.9865-9.5398-17.448-11.788-2.6282-0.79189-3.3555-0.86934-8.32-0.88605-4.3594-0.0147-5.885 0.10119-7.68 0.5833-5.452 1.4643-10.285 4.1184-14.33 7.8688-6.4159 5.9496-9.8404 12.971-10.777 22.096-0.21499 2.095-0.33366 19.678-0.33366 49.438v46.186l-1.36 0.19519c-0.748 0.10736-16.84 0.15218-35.76 0.0996-34.119-0.0948-34.412-0.10105-35.84-0.76432-1.7411-0.80856-3.6046-2.7998-4.2014-4.4894-0.34839-0.98637-0.43862-4.4343-0.43862-16.762 0-14.17 0.052-15.709 0.59804-17.689 1.9064-6.9151 9.5718-12.413 16.159-11.59 5.7678 0.72063 10.086 4.0498 12.062 9.2991 1.1521 3.061 1.3976 6.6532 1.4102 20.636 8e-3 8.9068 0.11013 12.115 0.39477 12.4 0.54633 0.54633 16.286 0.54633 16.832 0 0.61116-0.61116 0.53631-29.382-0.0857-32.934-2.1975-12.548-11.52-22.801-23.85-26.233-2.3463-0.65305-3.4014-0.75407-7.68-0.73535-5.492 0.024-8.6521 0.64748-13.49 2.6614-8.3332 3.4691-15.26 11.068-17.969 19.713-1.4492 4.6241-1.5478 6.4106-1.4382 26.072l0.10255 18.4 0.86919 2.56c1.3001 3.8291 2.9334 6.3784 6.1598 9.6141 2.4536 2.4607 3.341 3.1147 5.9258 4.3676 5.1978 2.5194 5.7961 2.6003 19.68 2.6601 6.688 0.0288 12.486 0.15836 12.884 0.28797 1.6978 0.553 1.6761 0.22898 1.6816 25.054 5e-3 23.337 0.37359 39.661 0.97355 43.136 1.1057 6.4045 4.34 12.313 9.2199 16.842 4.3971 4.0816 10.277 7.0647 15.945 8.089 3.7009 0.6689 9.396 0.62506 13.125-0.10104zm124.57-110.72-3.36-0.19188v-18.4c0-14.636 0.0909-18.76 0.4441-20.16 1.3468-5.3375 5.3701-9.7771 10.441-11.522 5.5212-1.8996 10.831-0.62336 14.66 3.5233 1.9941 2.1597 3.2115 4.3288 3.9693 7.0723 0.50552 1.8301 0.56525 3.7373 0.56525 18.046 0 14.533-0.0519 16.134-0.56568 17.466-0.70012 1.8139-1.889 2.9835-3.7588 3.6982-1.2148 0.46427-2.7884 0.55717-10.235 0.60432-4.84 0.0306-10.312-0.0306-12.16-0.13618zm-170.89-83.085c12.524-3.0326 21.934-13.133 24.168-25.942 1.7876-10.251-1.5254-20.609-9.0814-28.395-4.1738-4.3005-9.4289-7.3044-15.556-8.8919-4.2348-1.0973-10.879-1.0411-15.266 0.12909-7.3767 1.9678-13.521 6.0186-17.964 11.843-6.0519 7.9335-8.116 17.324-5.9721 27.17 2.2949 10.54 9.5912 19.036 19.573 22.79 6.631 2.4942 13.359 2.9282 20.099 1.2963zm-12.149-17.054c-2.5429-0.84679-4.1092-1.7221-5.8889-3.291-3.9312-3.4656-5.8562-8.9092-4.8526-13.722 1.2387-5.9409 5.7873-10.387 11.966-11.697 2.727-0.57796 4.1981-0.57154 6.7478 0.0295 4.3377 1.0225 7.6326 3.7039 9.5915 7.8058 1.1448 2.3971 1.1562 2.4619 1.1562 6.5809 0 4.1401-6e-3 4.1719-1.1888 6.6497-1.5258 3.1954-3.919 5.6418-6.8835 7.0367-1.943 0.91416-2.5159 1.0289-5.5276 1.1066-2.5817 0.0666-3.7677-0.049-5.12-0.49935zm202.51 17.223c9.6647-2.3228 17.122-8.254 21.604-17.184 3.8406-7.6511 4.3591-17.812 1.321-25.889-5.1383-13.66-18.545-22.24-32.664-20.905-18.6 1.7597-32.017 17.298-30.217 34.993 0.76729 7.5431 3.7535 14.202 8.8249 19.678 4.817 5.2016 12.052 8.9234 19.324 9.9408 3.0012 0.41986 8.6944 0.11417 11.807-0.63399zm-9.9642-16.649c-5.1521-0.86621-10.647-5.8962-12.197-11.165-1.886-6.4098 1.4512-13.746 7.6291-16.77 11.2-5.4833 22.986 2.4286 21.612 14.508-0.31998 2.8144-0.56538 3.6804-1.6695 5.8914-1.9934 3.9918-6.0875 6.8732-10.717 7.5427-2.4302 0.35142-2.5273 0.35127-4.6572-7e-3zm-88.693-40.65c13.967-1.9426 25.44-13.581 27.357-27.752 0.85597-6.3278-0.18233-12.648-3.0336-18.466-3.2215-6.573-8.2818-11.688-14.725-14.886-13.586-6.7413-30.266-3.1512-39.531 8.5083-7.4807 9.4137-9.1772 23.473-4.1409 34.317 3.77 8.1178 9.8153 13.649 18.485 16.912 4.1434 1.5597 10.31 2.1 15.589 1.3657zm-8.4624-17.444c-7.4394-2.0006-12.275-9.5379-10.977-17.109 0.98632-5.7518 5.5984-10.794 11.088-12.123 3.6886-0.89265 8.8596-0.2198 11.696 1.5219 4.2625 2.6174 7.36 8.2939 7.36 13.488 0 4.7148-3.557 10.521-7.8898 12.878-3.2849 1.7872-7.6807 2.3112-11.277 1.3441z" fill="#ff774d"/>
</svg>
